<svg fill="#f4f4f4" xmlns="http://www.w3.org/2000/svg" xmlns:xlink="http://www.w3.org/1999/xlink" version="1.1" x="0px" y="0px" viewBox="0 0 24 30" style="enable-background:new 0 0 24 24;" xml:space="preserve"><g><path d="M23.269,15.513l-0.966-0.164c-0.101-0.325-0.23-0.638-0.388-0.937l0.569-0.796c0.242-0.339,0.204-0.802-0.092-1.095   l-0.857-0.857c-0.161-0.161-0.374-0.25-0.601-0.25c-0.178,0-0.348,0.055-0.492,0.158l-0.799,0.569   c-0.31-0.164-0.635-0.299-0.972-0.4l-0.161-0.955c-0.069-0.411-0.423-0.71-0.84-0.71h-1.21c-0.309,0-0.583,0.166-0.732,0.419   c-0.259-0.518-0.384-1.221-0.384-2.171V6.64c0-3.573-2.906-6.479-6.479-6.479c-3.572,0-6.479,2.907-6.479,6.479v1.685   c0,2.099-0.6,3.084-2.004,3.294c-0.133,0.02-0.248,0.103-0.309,0.221c-0.096,0.187-0.024,0.339,0.033,0.461   c0.028,0.059,0.068,0.141,0.116,0.239c0.084,0.169,0.202,0.404,0.351,0.697l0.371,0.731c-0.584,0.58-0.917,1.38-0.917,2.208v3.265   c0,0.787,0.64,1.427,1.426,1.427h10.118c0.012,0.201,0.093,0.397,0.246,0.549l0.857,0.857c0.161,0.161,0.374,0.25,0.601,0.25   c0.178,0,0.348-0.055,0.492-0.158l0.808-0.575c0.29,0.152,0.595,0.276,0.909,0.374l0.161,0.966c0.069,0.411,0.423,0.71,0.84,0.71   h1.213c0.417,0,0.771-0.299,0.84-0.71l0.164-0.966c0.325-0.101,0.638-0.23,0.937-0.388l0.796,0.569   c0.144,0.104,0.316,0.158,0.495,0.158c0.227,0,0.44-0.089,0.601-0.25l0.857-0.857c0.293-0.293,0.334-0.756,0.092-1.095   l-0.569-0.799c0.158-0.302,0.29-0.615,0.388-0.937l0.966-0.161c0.411-0.069,0.71-0.423,0.71-0.84v-1.21   C23.979,15.936,23.68,15.582,23.269,15.513z M4.564,7.987V7.433l1.412-2.258c1.008,0.543,4.108,2.078,7.189,2.208v0.604   c0,2.371-1.93,4.3-4.301,4.3S4.564,10.359,4.564,7.987z M11.93,20.035H1.454c-0.328,0-0.595-0.267-0.595-0.595v-3.265   c0-1.058,0.719-1.969,1.748-2.216l0.729-0.175c0.345,1.084,1.021,2.069,1.909,2.782c1.037,0.831,2.288,1.27,3.619,1.27   c0.456,0,0.908-0.074,1.356-0.183c0.029,0.389,0.309,0.713,0.699,0.779l0.978,0.167c0.101,0.322,0.233,0.635,0.394,0.934   L11.93,20.035z M10.21,16.382v0.412c-0.442,0.126-0.892,0.209-1.345,0.209c-1.14,0-2.212-0.376-3.1-1.087   c-0.628-0.502-1.129-1.157-1.453-1.899l0.835-0.208c0.104-0.026,0.206-0.064,0.313-0.118c0.486-0.243,0.788-0.732,0.788-1.276   v-0.015c0.791,0.47,1.691,0.718,2.616,0.718c0.926,0,1.826-0.248,2.616-0.718v0.015c0,0.15,0.036,0.302,0.096,0.466   c-0.08,0.249-0.055,0.526,0.105,0.752l0.575,0.808c-0.158,0.302-0.285,0.615-0.382,0.94l-0.955,0.161   C10.509,15.611,10.21,15.965,10.21,16.382z M12.312,12.001v-0.216c1.071-0.973,1.685-2.354,1.685-3.798V6.977   c0-0.229-0.187-0.416-0.416-0.416c-3.578,0-7.497-2.277-7.536-2.3C5.853,4.146,5.598,4.209,5.481,4.398l-1.67,2.677   C3.804,7.082,3.786,7.113,3.781,7.12c0,0.001-0.021,0.05-0.022,0.05c-0.002,0.004-0.01,0.032-0.011,0.036   C3.746,7.211,3.741,7.236,3.74,7.239C3.739,7.248,3.737,7.256,3.738,7.256c0,0,0-0.001,0.001-0.004   C3.738,7.256,3.735,7.284,3.734,7.289c0,0.002,0,0.022,0,0.025v0.674c0,1.443,0.612,2.824,1.684,3.797v0.631   c0,0.227-0.126,0.431-0.338,0.537c-0.045,0.022-0.09,0.039-0.135,0.05l-0.901,0.226l-0.01-0.038   c-0.025-0.106-0.094-0.2-0.188-0.257s-0.208-0.077-0.314-0.05l-1.119,0.269c-0.277,0.066-0.544,0.17-0.793,0.309   c-0.198-0.389-0.418-0.823-0.575-1.138c1.944-0.59,2.173-2.557,2.173-3.997V6.64c0-3.114,2.533-5.647,5.647-5.647   s5.648,2.533,5.648,5.647v1.685c0,1.174,0.178,2.061,0.545,2.712c0.085,0.151,0.184,0.291,0.296,0.422   c0.03,0.035,0.067,0.063,0.099,0.096c0.01,0.011,0.021,0.021,0.032,0.031l-0.03,0.178c-0.322,0.101-0.635,0.233-0.934,0.394   l-0.791-0.569c-0.144-0.104-0.316-0.158-0.495-0.158c-0.227,0-0.443,0.089-0.601,0.25L12.312,12.001z M23.205,17.563h-0.003   c0,0.037-0.026,0.069-0.063,0.075l-1.208,0.201c-0.152,0.026-0.273,0.138-0.311,0.285c-0.109,0.423-0.276,0.828-0.5,1.205   c-0.078,0.132-0.072,0.296,0.017,0.423l0.71,1.001c0.02,0.029,0.017,0.072-0.009,0.098l-0.857,0.857   c-0.02,0.02-0.04,0.023-0.055,0.023c-0.017,0-0.032-0.006-0.043-0.014l-0.998-0.71c-0.124-0.089-0.29-0.095-0.423-0.017   c-0.377,0.224-0.782,0.391-1.205,0.5c-0.149,0.037-0.262,0.161-0.285,0.311l-0.204,1.208c-0.006,0.037-0.037,0.063-0.075,0.063   h-1.21c-0.037,0-0.069-0.026-0.075-0.063l-0.201-1.208c-0.026-0.152-0.138-0.273-0.285-0.311c-0.411-0.106-0.808-0.27-1.179-0.483   c-0.06-0.034-0.129-0.052-0.195-0.052c-0.078,0-0.158,0.023-0.224,0.072l-1.006,0.716c-0.014,0.009-0.029,0.014-0.043,0.014   c-0.011,0-0.034-0.003-0.055-0.023l-0.857-0.857c-0.026-0.026-0.029-0.066-0.009-0.098l0.707-0.992   c0.089-0.126,0.095-0.293,0.017-0.425c-0.224-0.374-0.397-0.779-0.506-1.202c-0.04-0.147-0.161-0.259-0.31-0.285l-1.216-0.207   c-0.037-0.006-0.063-0.037-0.063-0.075v-1.21c0-0.037,0.026-0.069,0.063-0.075l1.199-0.201c0.152-0.026,0.276-0.138,0.313-0.288   c0.106-0.423,0.27-0.831,0.492-1.208c0.078-0.132,0.069-0.296-0.02-0.42l-0.716-1.006c-0.02-0.029-0.017-0.072,0.009-0.098   l0.857-0.857c0.02-0.02,0.04-0.023,0.055-0.023c0.017,0,0.032,0.006,0.043,0.014l0.992,0.707c0.126,0.089,0.293,0.095,0.425,0.017   c0.374-0.224,0.779-0.397,1.202-0.506c0.147-0.04,0.259-0.161,0.285-0.311l0.207-1.216c0.006-0.037,0.037-0.063,0.075-0.063h1.21   c0.037,0,0.069,0.026,0.075,0.063l0.201,1.199c0.026,0.152,0.138,0.276,0.288,0.313c0.434,0.109,0.848,0.279,1.233,0.506   c0.132,0.078,0.296,0.072,0.423-0.017l0.992-0.713c0.014-0.009,0.029-0.014,0.043-0.014c0.011,0,0.034,0.003,0.055,0.023   l0.857,0.857c0.026,0.026,0.029,0.066,0.009,0.098l-0.71,0.998c-0.089,0.124-0.095,0.29-0.017,0.423   c0.224,0.377,0.391,0.782,0.5,1.205c0.037,0.15,0.161,0.262,0.311,0.285l1.208,0.204c0.037,0.006,0.063,0.037,0.063,0.075V17.563z"/><path d="M18.957,15.02c-0.172-0.136-0.423-0.109-0.562,0.062c-0.138,0.172-0.11,0.424,0.062,0.562l1.644,1.315l-1.644,1.315   c-0.173,0.138-0.2,0.39-0.062,0.562c0.079,0.099,0.195,0.15,0.312,0.15c0.088,0,0.176-0.029,0.25-0.087l2.034-1.628   c0.095-0.076,0.15-0.191,0.15-0.312s-0.056-0.236-0.15-0.312L18.957,15.02z"/><path d="M15.695,15.083c-0.139-0.172-0.39-0.201-0.562-0.062l-2.035,1.628c-0.095,0.076-0.15,0.191-0.15,0.312   s0.056,0.236,0.15,0.312l2.035,1.628c0.074,0.059,0.162,0.087,0.25,0.087c0.117,0,0.233-0.051,0.312-0.15   c0.138-0.173,0.11-0.424-0.062-0.562l-1.645-1.315l1.645-1.315C15.805,15.507,15.832,15.255,15.695,15.083z"/><path d="M17.767,14.65c-0.209-0.071-0.437,0.04-0.508,0.25l-1.315,3.86c-0.071,0.209,0.041,0.436,0.25,0.507   c0.043,0.015,0.086,0.021,0.129,0.021c0.166,0,0.322-0.104,0.379-0.271l1.315-3.86C18.088,14.948,17.976,14.721,17.767,14.65z"/></g><text x="0" y="39" fill="#000000" font-size="5px" font-weight="bold" font-family="'Helvetica Neue', Helvetica, Arial-Unicode, Arial, Sans-serif">Created by Atif Arshad</text><text x="0" y="44" fill="#000000" font-size="5px" font-weight="bold" font-family="'Helvetica Neue', Helvetica, Arial-Unicode, Arial, Sans-serif">from the Noun Project</text></svg>